<?xml version="1.0" encoding="utf-8"?>
<!-- Generator: Adobe Illustrator 25.0.0, SVG Export Plug-In . SVG Version: 6.00 Build 0)  -->
<svg version="1.1" id="Layer_1" xmlns="http://www.w3.org/2000/svg" xmlns:xlink="http://www.w3.org/1999/xlink" x="0px" y="0px"
	 viewBox="0 0 200 200" style="enable-background:new 0 0 200 200;" xml:space="preserve">
<style type="text/css">
	.st0{fill:#151515;}
</style>
<path id="anvil" class="st0" d="M52.6,46.5l3.3,14H0c0.3,1.6,0.8,3.1,1.4,4.7c1.3,2.5,2.8,4.8,4.7,7c8.8,10.2,24.2,14.4,36.7,16.7
	c8.8,1.6,17.6,2.6,26.5,2.8l10.2,27.4h5.6l3.3,8.8h-4.7l-7.9,25.6h77.7l-7.9-25.6h-4.7l3.3-8.8h5.6c0,0,4.7-28.4,19.1-41.4
	c8.7-7.9,19.5-13.1,31.2-14.9V46.5H52.6z M130.7,116.7c-3.7,2.3-7.9,2.3-10.7,4.2c-1.3,0.9-2.3,2.2-2.8,3.7c-1.1-3.2-3.7-5.6-7-6.5
	c-5.5-0.6-10.7-2.9-14.9-6.5c-3.5-3.2-5.3-7.9-4.7-12.6v-1.4c-0.1-0.5,0.1-1,0.5-1.4l0,0c1.4-3.6,4.3-6.3,7.9-7.4
	c-1.9,2.8-1.9,6.5,0,9.3c1.9,3,5.7,4,8.8,2.3c1.3-1.1,2.3-2.5,2.8-4.2c1.3-3,0.6-6.6-1.9-8.8c-4-2.7-5-8.1-2.4-12c0,0,0,0,0,0
	c0.5,2.4,2.7,4,5.1,3.7c2.8,0,2.8-0.9,1.9-1.9c-0.5-1.4-6.5-10.2,2.3-16.7c3.6-2.3,7.8-3.4,12.1-3.3c-4,0.4-7.6,2.9-9.3,6.5v0.5
	c-1.3,4-0.4,8.4,2.3,11.6c2.2,2.6,4,5.6,5.1,8.8c-1.2-0.4-2.5-0.1-3.3,0.9c-1,1.1-1.4,2.7-0.9,4.2c0.4,1,1.3,1.7,2.3,1.9h1.4
	c1.5-0.6,2.3-2.2,1.9-3.7c1,1.3,1.4,3,0.9,4.7c-0.2,1.3-0.7,2.6-1.4,3.7c-0.5,0.9-1.4,1.9-1.9,2.8c-0.5,0.8-0.8,1.8-0.9,2.8
	c-0.1,1.1,0.1,2.2,0.5,3.3c1.9,2.8,5.6,0,6.5-2.3c1.3-2.9,1-6.3-0.9-8.8c2.7,2.1,4.7,5,5.6,8.4C137.3,107.7,135.2,113.5,130.7,116.7
	L130.7,116.7z"/>
</svg>
