<?xml version="1.0" encoding="utf-8"?>
<!-- Generator: Adobe Illustrator 25.0.0, SVG Export Plug-In . SVG Version: 6.00 Build 0)  -->
<svg version="1.1" id="Layer_1" xmlns="http://www.w3.org/2000/svg" xmlns:xlink="http://www.w3.org/1999/xlink" x="0px" y="0px"
	 viewBox="0 0 200 200" style="enable-background:new 0 0 200 200;" xml:space="preserve">
<style type="text/css">
	.st0{fill:#151515;}
</style>
<g id="Discord-Logo-White" transform="translate(-35 -20)">
	<path id="Path_17" class="st0" d="M116.9,103.9c-6.1-0.5-11.5,4-12,10.2s4,11.5,10.2,12c6.1,0.5,11.5-4,12-10.2c0-0.3,0-0.6,0-0.9
		C127.4,109.1,122.8,104.2,116.9,103.9C116.9,103.9,116.9,103.9,116.9,103.9z M153.4,103.9c-6.1-0.5-11.5,4-12,10.2
		c-0.5,6.1,4,11.5,10.2,12c6.1,0.5,11.5-4,12-10.2c0-0.3,0-0.6,0-0.9C163.9,109.1,159.3,104.2,153.4,103.9
		C153.4,103.9,153.4,103.9,153.4,103.9L153.4,103.9z"/>
	<path id="Path_18" class="st0" d="M202,20H68c-11.3,0-20.5,9.2-20.5,20.6c0,0,0,0,0,0v135.2c0,11.3,9.1,20.6,20.5,20.6c0,0,0,0,0,0
		h113.4l-5.3-18.5l12.8,11.9L201,201l21.5,19V40.6C222.5,29.3,213.4,20,202,20z M163.4,150.6c0,0-3.6-4.3-6.6-8.1
		c7.2-1.7,13.7-5.9,18.1-11.9c-3.6,2.4-7.5,4.4-11.5,5.9c-4.7,2-9.5,3.4-14.5,4.3c-8.6,1.6-17.3,1.5-25.9-0.1c-5-1-9.9-2.4-14.7-4.3
		c-2.5-1-4.9-2.1-7.3-3.4c-0.3-0.2-0.6-0.3-0.9-0.5c-0.2-0.1-0.3-0.2-0.4-0.3c-1.8-1-2.8-1.7-2.8-1.7c4.3,5.9,10.5,10,17.5,11.8
		c-3,3.8-6.7,8.3-6.7,8.3c-12.1,0.3-23.5-5.4-30.5-15.2c0.3-20.3,5.3-40.2,14.4-58.3c8.1-6.3,17.9-10,28.1-10.5l1,1.2
		c-9.6,2.4-18.6,6.9-26.3,13.1c0,0,2.2-1.2,5.9-2.9c7.2-3.3,14.8-5.4,22.7-6.3c0.6-0.1,1.1-0.2,1.7-0.2c6.7-0.9,13.5-0.9,20.2-0.2
		c10.6,1.2,20.8,4.5,30.1,9.6c-7.3-5.9-15.8-10.3-24.9-12.7l1.4-1.6c10.2,0.5,20,4.2,28.1,10.5c9.2,18.1,14.1,38,14.4,58.3
		C186.9,145.2,175.5,150.9,163.4,150.6z"/>
</g>
</svg>
