<?xml version="1.0" encoding="utf-8"?>
<!-- Generator: Adobe Illustrator 25.0.0, SVG Export Plug-In . SVG Version: 6.00 Build 0)  -->
<svg version="1.1" id="Layer_1" xmlns="http://www.w3.org/2000/svg" xmlns:xlink="http://www.w3.org/1999/xlink" x="0px" y="0px"
	 viewBox="0 0 200 200" style="enable-background:new 0 0 200 200;" xml:space="preserve">
<style type="text/css">
	.st0{fill-rule:evenodd;clip-rule:evenodd;fill:#151515;}
</style>
<path id="Path_14" class="st0" d="M100,2.6c-55.2,0-99.9,44.7-99.9,99.9c0,43,27.5,81.2,68.3,94.8c5,0.9,6.8-2.2,6.8-4.8
	c0-2.4-0.1-8.7-0.1-17c-27.8,6-33.7-13.4-33.7-13.4c-1.8-6-5.8-11.2-11.1-14.6c-9-6.2,0.7-6.1,0.7-6.1c6.4,0.9,12.1,4.7,15.3,10.3
	c8.9,15.3,23.4,10.9,29.1,8.3c0.5-5.1,2.7-9.8,6.3-13.4c-22.2-2.5-45.5-11.1-45.5-49.4c-0.1-9.9,3.5-19.5,10.3-26.8
	c-3.1-8.6-2.7-18.1,1-26.4c0,0,8.4-2.7,27.5,10.3c16.4-4.5,33.6-4.5,50,0C144.1,41.3,152.4,44,152.4,44c3.7,8.4,4.1,17.8,1,26.4
	c6.7,7.3,10.4,16.9,10.3,26.8c0,38.4-23.4,46.8-45.6,49.3c4.8,4.9,7.3,11.6,6.8,18.5c0,13.4-0.1,24.1-0.1,27.4
	c0,2.7,1.8,5.8,6.9,4.8c52.3-17.5,80.6-74.1,63.1-126.4C181.1,30.1,143,2.6,100,2.6"/>
</svg>
