<?xml version="1.0" encoding="utf-8"?>
<!-- Generator: Adobe Illustrator 25.0.0, SVG Export Plug-In . SVG Version: 6.00 Build 0)  -->
<svg version="1.1" id="Layer_1" xmlns="http://www.w3.org/2000/svg" xmlns:xlink="http://www.w3.org/1999/xlink" x="0px" y="0px"
	 viewBox="0 0 200 200" style="enable-background:new 0 0 200 200;" xml:space="preserve">
<style type="text/css">
	.st0{fill-rule:evenodd;clip-rule:evenodd;fill:currentColor;}
	.st1{fill:currentColor;}
</style>
<g id="logo" transform="translate(0 -0.998)">
	<path id="Path_15" class="st0" d="M196.4,127.1c14.4-53.4-17.3-108.2-70.6-122.6S17.5,21.7,3.2,75.1c-1.4,5.1-2.4,10.4-2.9,15.7
		h16.9c5.7-45.4,47.1-77.6,92.5-71.9c30.4,3.8,56.3,24.1,67.2,52.8l-16.4,4.4C153,58.1,138,44.4,119.5,38.5l-3,17.1
		c25.1,9.2,37.9,37,28.7,62.1c-4.4,12-13.3,21.7-24.8,27.1l4.5,16.8c27.4-11.3,43.8-39.7,39.9-69.1l16.4-4.4
		c1.7,10.9,1.2,22.1-1.5,32.8L196.4,127.1z"/>
	<path id="Path_16" class="st1" d="M125.7,197.6C72.3,211.9,17.5,180.2,3.1,126.8c-1.6-6.1-2.7-12.3-3.1-18.6h16.9
		c0.9,9.7,3.5,19.1,7.6,27.9l15.1-9c-14.4-33.3,1-71.9,34.2-86.3c9.1-3.9,18.9-5.7,28.8-5.3l-3,17.1c-26.8,0.1-48.4,21.9-48.2,48.7
		c0,4.1,0.6,8.3,1.6,12.2c0.4,1.6,0.9,3.1,1.5,4.6l19.3-11.6l-5.8-15.3l18.2-18.7l23-5l6.7,8.2l-10.6,10.7l-9.2,2.9l-6.6,6.8l3.2,9
		c0,0,6.5,7,6.6,7l9.3-2.5l6.6-7.2l14.4-4.6l4.3,9.6l-14.8,18.2l-24.9,7.9l-11.2-12.4L63.3,133c10.1,11.6,25.2,17.6,40.5,16.3
		l4.5,16.8c-22.8,3-45.5-6.2-59.9-24.2l-15,9c27.7,36.4,79.8,43.5,116.2,15.7c10.3-7.8,18.6-17.9,24.2-29.5l16.6,6
		C178.1,170,154.3,189.9,125.7,197.6z"/>
</g>
</svg>
