<?xml version="1.0" encoding="utf-8"?>
<!-- Generator: Adobe Illustrator 25.0.0, SVG Export Plug-In . SVG Version: 6.00 Build 0)  -->
<svg version="1.1" id="Layer_1" xmlns="http://www.w3.org/2000/svg" xmlns:xlink="http://www.w3.org/1999/xlink" x="0px" y="0px"
	 viewBox="0 0 200 200" style="enable-background:new 0 0 200 200;" xml:space="preserve">
<style type="text/css">
	.st0{fill:#FFFFFF;}
</style>
<g>
	<path class="st0" d="M193,165.1l-4.4,1.1c-9.9-13.1-13.3-16.1-13.9-16.6l-3,3.8l-3,3.8l-0.1-0.1c0.3,0.2,2.8,2.6,9.6,11.4
		l-26.2,6.2c-1.2-4-2.7-9.1-4.5-15.6l-4.7,1.3l-4.7,1.3c1.7,6.1,3.2,11.2,4.4,15.2l-96.8,22.7c-4.8,1.1-9.7-1.9-10.8-6.7l-10.7-45.4
		l-1.9-8.2h8v-20.7h12.8c8.2,0,16-3.7,21.4-9.9c0.3-0.3,0.6-0.7,0.9-1.1l0.4-0.6c0.2-0.3,0.6-0.7,0.8-1.1c0.2-0.4,0.5-0.7,0.7-1.1
		c0.4-0.7,0.7-1.3,1.1-2l0.1-0.2c0.3-0.7,0.7-1.4,0.9-2.1c0.3-0.8,0.6-1.6,0.8-2.5c0.1-0.3,0.2-0.7,0.2-1c0.2-1,0.4-2,0.6-2.9
		c0.6-4.2,0.2-8.4-1-12.4c-0.3-1.2-0.8-2.4-1.3-3.5c-0.5-1.1-1.1-2-1.6-3.1c-0.1-0.2-0.2-0.4-0.3-0.6c-0.2-0.4-0.5-0.8-0.8-1.1
		l-0.4-0.6c-0.4-0.6-0.8-1.1-1.3-1.6c-5.5-6.3-13.4-9.9-21.7-9.9H9.8v24.7L2.1,53.2l-1.9-7.5C-0.9,40.9,2,36,6.9,34.8h0.1l22.3-5.2
		c4.6,15.6,6.7,19.5,7.1,20.2l4.2-2.5l4.2-2.5c-0.3-0.7-2.1-4.6-6-17.4l24.5-5.7c0.2,0.9,0.4,1.7,0.6,2.4c1.5,6.6,1.9,8.3,6.4,15.9
		l4.2-2.5l4.2-2.5c-3.9-6.4-4-7.1-5.3-12.9c-0.2-0.7-0.3-1.6-0.6-2.6l81.5-19.2c4.8-1.1,9.6,1.8,10.8,6.6v0.1l10.9,46.4l2.8,11.7
		l-20.5,44.2l-14.8-32.4h-8.6l-14.9,32.4l-22-47.7H75.4l36,77.9h14.8l13-27.8l13,27.7h14.8l19.6-42.2l3,12.9l10.4,44.1
		C200.9,159.1,198,163.9,193,165.1C193.1,165.1,193.1,165.1,193,165.1z"/>
	<path class="st0" d="M54.1,90c0,6.1-5,11.1-11.1,11.1c-0.1,0-0.2,0-0.2,0H30.2V78.8h12.6c6.2-0.1,11.3,4.9,11.3,11.1
		C54.1,89.9,54.1,89.9,54.1,90z"/>
</g>
</svg>
