<svg id="Layer_1" data-name="Layer 1" xmlns="http://www.w3.org/2000/svg" viewBox="0 0 200 200"><defs><style>.cls-1{fill:#151515;}</style></defs><path class="cls-1" d="M133.2,183v16.55H66.81V183l0,0H83.34V166.4H66.78l0,0V133.16H50.16V116.57H33.66V83.36H50.13V66.77H17l0,0V33.59H33.56V17h33.2V.44H133.2V17l0,0H100V50.2H83.45V83.42h33.11v49.79h-16.5V183h33.16Z"/><path class="cls-1" d="M166.41,33.59H183V66.77h16.56v66.39h-16.5V166.4H166.41l0,0V149.76H149.78v-33.2H133.27V83.37h16.57V66.77h16.59V33.56Z"/><path class="cls-1" d="M17,133.19H.43V66.8H17l0,0v66.45Z"/><path class="cls-1" d="M133.2,17h33.21V33.59l0,0H133.22V17Z"/><path class="cls-1" d="M33.6,166.4H17V133.19l0,0h16.6v33.2Z"/><path class="cls-1" d="M66.81,183H33.6V166.4l0,0H66.8l0,0V183Z"/><path class="cls-1" d="M166.41,166.4V183H133.2l0,0V166.42h33.21Z"/></svg>